# xmcd
# 
# Track frame offsets:
#     182
#     12070
#     26735
#     38270
#     52290
#     75792
#     89580
#     104167
#     123037
#     136937
#     148690
#     157165
#     168192
#     181335
#     195642
# 
# Disc length: 2775
# 
# Revision: 2
# Processed by: cddbd v1.5.2PL0 Copyright (c) Steve Scherf et al.
# Submitted via: fre:ac v1.0.27
# 
DISCID=bf0ad50f
DTITLE=Joe Dassin - Gold
DYEAR=0
DGENRE=
TTITLE0=Les Champs Elysees
TTITLE1=Si tu t'appelles melancolie
TTITLE2=Si je dis, je t'aime
TTITLE3=Faut pas faire de la peine a John
TTITLE4=Toi le refrain de ma vie
TTITLE5=Ca va pas changer le monde
TTITLE6=Darlin'
TTITLE7=Marie-Jeanne
TTITLE8=Mon copain Julie
TTITLE9=Ca m'avance a quoi
TTITLE10=Il faut naitre a Monaco
TTITLE11=Excuse me Lady
TTITLE12=Un lord anglais
TTITLE13=L'equipe a jojo
TTITLE14=La demoiselle de deshonneur
EXTD=
EXTT0=
EXTT1=
EXTT2=
EXTT3=
EXTT4=
EXTT5=
EXTT6=
EXTT7=
EXTT8=
EXTT9=
EXTT10=
EXTT11=
EXTT12=
EXTT13=
EXTT14=
PLAYORDER=
